# xmcd
#
# Track frame offsets:
#	150
#	12690
#	26466
#	40646
#	53764
#	67125
#	82416
#	98177
#	116258
#	134374
#	152342
#
# Disc length: 2189 seconds
#
# Revision: 0
# Processed by: cddbd v1.5.2PL0 Copyright (c) Steve Scherf et al.
# Submitted via: dBpowerAMP V4.0
#
DISCID=8c088b0b
DTITLE=Bobby Flores - Too Many Rivers
DYEAR=2005
DGENRE=Country
TTITLE0=Big Shoes
TTITLE1=When Your House Is Not A Home 
TTITLE2=Brothers, Strangers and Friends
TTITLE3=My Life's Been A Pleasure 
TTITLE4=Too Many Rivers 
TTITLE5=The Last Letter 
TTITLE6=Too Late 
TTITLE7=Unloved, Unwanted 
TTITLE8=I Wonder Where You Are Tonight 
TTITLE9=I've Just Destroyed The World I'm Living In 
TTITLE10=How Long Is Forever This Time 
EXTD=
EXTT0=
EXTT1=
EXTT2=
EXTT3=
EXTT4=
EXTT5=
EXTT6=
EXTT7=
EXTT8=
EXTT9=
EXTT10=
PLAYORDER=
